PathFileType	4	(X/Y/Z)	..\data\2014019\dynamic\2014019_C4_05.trc
DataRate	CameraRate	NumFrames	NumMarkers	Units	OrigDataRate	OrigDataStartFrame	OrigNumFrames
100.000000	100.000000	4	52	mm	100.000000	21	172
Frame#	Time	L_IAS			L_IPS			R_IPS			R_IAS			L_FTC			L_FLE			L_FME			L_FAX			L_TTC			L_FAL			L_TAM			L_FCC			L_FM1			L_FM2			L_FM5			R_FTC			R_FLE			R_FME			R_FAX			R_TTC			R_FAL			R_TAM			R_FCC			R_FM1			R_FM2			R_FM5			CV7			TV10			SXS			SJN			L_SIA			L_SRS			L_SAA			L_SAE			L_HLE			L_HME			L_UOA			L_RSP			L_UHE			L_HM2			L_HM5			R_SIA			R_SRS			R_SAA			R_SAE			R_HLE			R_HME			R_UOA			R_RSP			R_UHE			R_HM2			R_HM5			
		X1	Y1	Z1	X2	Y2	Z2	X3	Y3	Z3	X4	Y4	Z4	X5	Y5	Z5	X6	Y6	Z6	X7	Y7	Z7	X8	Y8	Z8	X9	Y9	Z9	X10	Y10	Z10	X11	Y11	Z11	X12	Y12	Z12	X13	Y13	Z13	X14	Y14	Z14	X15	Y15	Z15	X16	Y16	Z16	X17	Y17	Z17	X18	Y18	Z18	X19	Y19	Z19	X20	Y20	Z20	X21	Y21	Z21	X22	Y22	Z22	X23	Y23	Z23	X24	Y24	Z24	X25	Y25	Z25	X26	Y26	Z26	X27	Y27	Z27	X28	Y28	Z28	X29	Y29	Z29	X30	Y30	Z30	X31	Y31	Z31	X32	Y32	Z32	X33	Y33	Z33	X34	Y34	Z34	X35	Y35	Z35	X36	Y36	Z36	X37	Y37	Z37	X38	Y38	Z38	X39	Y39	Z39	X40	Y40	Z40	X41	Y41	Z41	X42	Y42	Z42	X43	Y43	Z43	X44	Y44	Z44	X45	Y45	Z45	X46	Y46	Z46	X47	Y47	Z47	X48	Y48	Z48	X49	Y49	Z49	X50	Y50	Z50	X51	Y51	Z51	X52	Y52	Z52	

22	0.21	-955.9700927734377	938.1502685546877	111.3673171997069	-1173.811767578125	983.9431152343752	167.8600158691405	-1182.912963867188	965.9776611328127	264.4908447265624	-979.926208496094	914.493835449219	339.0821533203124	-1025.125	882.8914184570315	14.24498939514148	-920.8695068359377	474.928436279297	87.16764831542959	-962.8385009765627	457.0997924804689	214.7221221923828	-937.511657714844	414.9802856445314	79.03719329833974	-894.352233886719	407.3419494628907	138.834747314453	-956.955017089844	66.76467132568361	122.775405883789	-940.778259277344	89.65249633789064	214.6795501708984	-1002.067443847656	24.01840591430665	164.3792266845702	-820.8252563476565	22.82628440856934	224.0567626953124	-795.4826660156252	39.03717803955079	171.3375091552734	-828.5534667968752	21.82645416259766	110.7158889770507	-1096.596435546875	828.2281494140627	410.6063842773438	-1055.727661132813	432.7641601562501	376.9391784667968	-1035.531616210938	408.5752868652345	241.683853149414	-1105.022583007813	405.8520812988282	383.7544860839843	-1067.980590820313	348.2898254394532	334.1495056152343	-1393.844360351563	238.9020690917969	342.7310180664061	-1365.373779296875	211.8472595214844	259.7142333984374	-1446.708618164063	250.3382415771485	279.7561950683593	-1377.884521484375	70.39591217041017	279.6998901367186	-1368.962524414063	70.98441314697267	337.4694213867186	-1406.146484375	105.2662124633789	379.1065673828124	-1140.212036132813	1462.99169921875	219.4182128906249	-1204.098754882813	1247.326904296875	224.3939208984374	-971.0887451171877	1150.116088867188	225.6590118408203	-1017.134826660156	1376.388427734375	220.8461914062499	-1206.588256835938	1280.153930664063	144.3644104003905	-1167.5126953125	1406.79248046875	108.6845779418944	-1132.9326171875	1400.546142578125	46.2486419677733	-1084.351318359375	1416.128173828125	35.07025527954089	-1156.975219726563	1091.335205078125	-16.50852966308608	-1165.790283203125	1085.662475585938	51.10445785522448	-1174.04248046875	1067.589111328125	24.29920578002916	-1097.657592773438	845.311950683594	-56.52563858032241	-1165.104248046875	864.6828613281252	-80.54391479492203	-1103.180053710938	752.4271850585939	-73.23297882080094	-1197.996459960938	782.8725585937502	-78.15424346923844	-1215.004028320313	1281.548950195313	298.5145568847655	-1174.632202148438	1414.166381835938	326.0375366210936	-1130.990600585938	1415.930786132813	387.5825500488281	-1092.206176757813	1432.50390625	391.3530578613281	-1105.31591796875	1105.549072265625	478.6744995117188	-1139.713134765625	1092.372314453125	408.3065490722656	-1137.877685546875	1067.685424804688	448.65283203125	-927.464294433594	920.5623168945315	447.6882019042969	-979.5828857421878	898.1608886718752	490.865234375	-868.3247680664065	846.141296386719	461.1747741699219	-963.0885620117191	814.7737426757815	477.8329467773438	
23	0.22	-944.4588012695315	939.6008300781252	110.7327194213866	-1162.215942382813	985.7491455078127	166.6971435546874	-1171.546264648438	967.2258911132815	262.9428100585936	-969.1580810546877	916.6422119140627	338.8418884277343	-1013.8935546875	884.206970214844	13.61674404144275	-916.5535888671877	474.5694885253907	86.51981353759756	-959.0452880859377	457.2985229492189	213.8914031982421	-934.3489379882815	414.747772216797	78.44864654541006	-891.0739746093752	406.5599060058595	138.1559906005859	-956.9207763671877	66.74199676513673	122.9124298095702	-941.1658935546877	89.53992462158205	214.7339782714843	-1002.132080078125	23.94890594482422	164.3593597412109	-820.963073730469	23.03996849060059	224.0498809814453	-795.536071777344	39.40700149536134	171.4050140380859	-828.6486816406252	22.23110961914063	110.6799163818359	-1084.513916015625	828.7580566406252	409.3716735839844	-1030.095458984375	434.5185852050782	375.6670837402343	-1010.745239257813	411.0657958984376	239.8187561035156	-1078.334838867188	407.2780761718751	382.7431945800781	-1041.578125	350.3939514160157	332.2469482421874	-1367.205322265625	241.3200225830079	342.4555358886718	-1339.360229492188	213.9595336914063	259.2160644531249	-1421.011596679688	251.5115051269532	279.8547973632811	-1348.729248046875	72.30765533447267	282.316680908203	-1339.75048828125	73.98328399658205	340.0329589843749	-1377.174926757813	109.114242553711	381.1012268066405	-1127.365966796875	1464.918701171875	218.617462158203	-1191.765014648438	1249.435302734375	222.8490142822265	-959.5634765625002	1151.468994140625	225.4282226562499	-1004.599487304688	1378.005004882813	220.4663848876953	-1194.193115234375	1282.642700195313	142.8133239746093	-1154.32373046875	1409.030639648438	107.436424255371	-1119.345336914063	1402.4716796875	45.11859893798815	-1070.53662109375	1417.901245117188	34.32519531249988	-1138.71142578125	1091.981567382813	-18.48248863220229	-1149.280151367188	1086.315795898438	48.98297500610339	-1156.53955078125	1068.062622070313	22.01857948303209	-1074.066772460938	847.0045166015627	-56.91907501220718	-1140.959838867188	865.1007080078127	-82.42290496826188	-1076.660766601563	754.3979492187501	-74.28424072265639	-1171.988647460938	782.4558105468752	-81.08103179931656	-1203.045532226563	1283.777221679688	297.0711364746093	-1162.297729492188	1416.18798828125	325.0502929687499	-1118.920654296875	1417.783935546875	386.8215637207031	-1080.0361328125	1434.124267578125	390.7035522460938	-1095.430419921875	1106.946044921875	476.9512329101562	-1129.705688476563	1094.453979492188	406.5234375	-1128.55322265625	1069.812744140625	446.714599609375	-921.859802246094	917.804626464844	446.6902770996094	-974.4627075195316	896.8358154296877	489.8422241210938	-864.6138916015627	841.722106933594	460.0391235351562	-960.2498779296878	813.0532836914065	476.70166015625	
24	0.23	-933.1198730468752	940.945983886719	110.199478149414	-1150.76953125	987.5019531250002	165.5581970214843	-1160.291870117188	968.6394042968752	261.4049072265624	-958.600769042969	918.9395141601565	338.7821655273437	-1002.78076171875	885.4381103515627	13.07792568206775	-912.8155517578127	474.1544494628907	85.73110961914053	-955.6126708984377	457.5300903320314	213.0016937255859	-931.6827392578127	414.4790344238282	77.75798034667959	-888.2154541015627	405.7760620117189	137.318374633789	-956.9620361328127	66.64592742919923	122.9692077636718	-941.4792480468752	89.45957946777345	214.6695404052734	-1002.258850097656	23.86663818359375	164.3182983398437	-821.0971679687502	23.24322891235352	223.9567565917968	-795.6282958984377	39.66349029541016	171.3455200195312	-828.765319824219	22.44281196594239	110.6292266845702	-1072.680419921875	829.6844482421877	408.2906799316406	-1004.7880859375	436.856658935547	374.2077636718749	-986.236511230469	414.2302856445314	237.8103790283203	-1052.0380859375	409.2057495117189	381.3921508789062	-1015.211853027344	352.9935302734376	330.1997070312499	-1339.851196289063	242.2184753417969	342.1217956542968	-1312.427856445313	214.8272552490235	258.6357421874999	-1394.6513671875	250.6788177490235	279.9544067382811	-1317.257202148438	73.26799774169923	284.4136352539061	-1308.141357421875	76.20065307617189	342.0190429687499	-1346.111694335938	111.3889617919922	382.7166748046874	-1114.620849609375	1466.852905273438	217.8929290771484	-1179.619140625	1251.572998046875	221.2928924560546	-948.2570800781252	1152.78173828125	225.2359771728515	-992.1951293945315	1379.604614257813	220.1529235839843	-1181.937133789063	1285.199829101563	141.2281799316405	-1141.247192382813	1411.320556640625	106.2411041259764	-1105.857543945313	1404.497192382813	44.05694961547839	-1056.8388671875	1419.7724609375	33.6561698913573	-1120.265869140625	1092.742065429688	-20.4116592407228	-1132.724853515625	1087.096435546875	46.87446212768541	-1138.881103515625	1068.638061523438	19.74515533447252	-1050.154052734375	848.9755859375002	-57.01854705810561	-1116.373168945313	865.740173339844	-84.10139465332047	-1049.672607421875	756.7014160156251	-75.00335693359389	-1145.414306640625	782.310974121094	-83.83825683593766	-1191.215942382813	1285.961181640625	295.5694885253905	-1150.093994140625	1418.168579101563	324.1010437011718	-1106.970458984375	1419.565307617188	386.1011047363281	-1068.002319335938	1435.67578125	390.1167602539062	-1085.53857421875	1108.307861328125	475.3414001464844	-1119.857055664063	1096.493408203125	404.9480285644531	-1119.249267578125	1071.935668945313	444.9540405273438	-916.508239746094	915.031433105469	445.7642822265625	-969.5382690429691	895.5588989257815	488.97021484375	-861.265808105469	837.2792968750002	458.8952941894531	-957.6916503906253	811.411560058594	475.7176208496094	
25	0.24	-921.9342041015627	942.2039184570315	109.7334823608398	-1139.451782226563	989.1778564453127	164.4795074462889	-1149.120361328125	970.1690063476565	259.9488525390624	-948.1709594726565	921.3272094726565	338.8178405761718	-991.7881469726565	886.5998535156252	12.60311889648426	-909.5366821289065	473.7119750976564	84.81881713867178	-952.4698486328127	457.8192138671876	212.0714111328124	-929.3715820312502	414.2021789550782	76.98099517822256	-885.6782226562502	405.0197143554689	136.3629760742187	-957.0445556640627	66.50302886962892	122.9496917724609	-941.6682739257815	89.43899536132814	214.4996337890624	-1002.423034667969	23.79373359680176	164.2559967041015	-821.2239379882815	23.40634536743164	223.8065185546874	-795.7359619140627	39.79211807250977	171.1987609863281	-828.8861083984377	22.47299194335938	110.5624923706054	-1060.993286132813	830.9302978515627	407.3700256347656	-979.8834228515627	439.711639404297	372.6022033691406	-962.018249511719	417.9666137695314	235.7272949218749	-1026.223388671875	411.5909423828126	379.7469482421874	-988.9617919921877	356.0360412597657	328.0758972167968	-1311.852416992188	241.5599060058594	341.7530822753905	-1284.649536132813	214.4117126464844	258.0084838867186	-1367.652465820313	247.8876037597657	280.0646667480468	-1283.775390625	73.27183532714845	285.8955688476561	-1274.448608398438	77.54497528076173	343.3388671874999	-1313.223999023438	112.0391616821289	383.8811035156249	-1101.976440429688	1468.760498046875	217.2293395996093	-1167.644897460938	1253.701904296875	219.739273071289	-937.140808105469	1154.0546875	225.0702362060546	-979.9135742187502	1381.166137695313	219.888442993164	-1169.79833984375	1287.7763671875	139.6112518310546	-1128.281494140625	1413.619750976563	105.0932464599608	-1092.467895507813	1406.59130859375	43.05569839477526	-1043.259887695313	1421.714477539063	33.05941009521472	-1101.671752929688	1093.606079101563	-22.28781890869154	-1116.111450195313	1087.994750976563	44.78412628173815	-1121.078735351563	1069.29638671875	17.48539733886705	-1025.93017578125	851.235778808594	-56.83330535888686	-1091.39599609375	866.6065063476565	-85.5550689697267	-1022.268981933594	759.3451538085939	-75.36389160156264	-1118.320556640625	782.453552246094	-86.37859344482438	-1179.4970703125	1288.072509765625	294.0292358398436	-1138.009033203125	1420.08203125	323.1809082031249	-1095.119750976563	1421.260498046875	385.4039306640625	-1056.088989257813	1437.146606445313	389.5752258300781	-1075.663940429688	1109.627197265625	473.832275390625	-1110.174682617188	1098.48974609375	403.550537109375	-1109.974365234375	1074.0400390625	443.3541870117188	-911.385925292969	912.2766723632815	444.9146118164062	-964.7902221679691	894.3516235351565	488.2483825683594	-858.2527465820315	832.8607177734377	457.7692565917969	-955.3732299804691	809.8799438476565	474.9006958007812	
